<svg version="1.1" xmlns="http://www.w3.org/2000/svg"  xmlns:xlink="http://www.w3.org/1999/xlink" width="100px" height="100px" viewBox="0,0,256,256">
          <g
            fill="#cc5de8"
            fill-rule="nonzero"
            stroke="none"
            stroke-width="1"
            stroke-linecap="butt"
            stroke-linejoin="miter"
            stroke-miterlimit="10"
            stroke-dasharray=""
            stroke-dashoffset="0"
            font-family="none"
            font-weight="none"
            font-size="none"
            text-anchor="none"
            style="mix-blend-mode: normal"
          >
            <g transform="scale(2.56,2.56)">
              <path
                d="M51.06055,8.4668c-2.49961,0 -4.99957,0.22536 -7.46875,0.67383c-0.91962,0.16718 -1.60084,0.94897 -1.64062,1.88281l-0.39844,9.36328c-2.81213,0.8954 -5.46892,2.17437 -7.92187,3.81445l-7.56641,-5.52539c-0.75483,-0.55213 -1.79149,-0.50752 -2.49609,0.10742c-3.78095,3.30203 -6.93475,7.25727 -9.3125,11.67773c-0.44287,0.82335 -0.25633,1.84365 0.44922,2.45703l7.07227,6.14844c-1.05357,2.75722 -1.70992,5.63134 -1.95703,8.57227l-9.03906,2.4707c-0.90206,0.24661 -1.51284,1.08532 -1.4707,2.01953c0.22475,5.01387 1.35083,9.94673 3.32422,14.5625c0.36796,0.85924 1.28194,1.34908 2.20117,1.17969l9.2168,-1.69531c1.49878,2.54231 3.33723,4.84771 5.48242,6.875l-3.70508,8.60742c-0.36957,0.85838 -0.09547,1.85827 0.66016,2.4082c4.06045,2.95134 8.62063,5.14759 13.45898,6.48242c0.90101,0.24833 1.85387,-0.16039 2.29492,-0.98437l4.42188,-8.26172c2.92215,0.41317 5.87083,0.4133 8.79297,0l4.41992,8.26172c0.44124,0.82486 1.39526,1.23373 2.29688,0.98438c4.83836,-1.33483 9.39658,-3.53108 13.45703,-6.48242c0.75633,-0.54939 1.03127,-1.54937 0.66211,-2.4082l-3.70508,-8.60742c2.14518,-2.02727 3.98315,-4.33289 5.48242,-6.875l9.2168,1.69531c0.91923,0.16939 1.83322,-0.32045 2.20117,-1.17969c1.97347,-4.61491 3.09947,-9.54767 3.32422,-14.5625c0.04214,-0.93421 -0.56865,-1.77292 -1.4707,-2.01953l-9.04297,-2.4707c-0.24757,-2.94129 -0.90387,-5.81504 -1.95703,-8.57227l7.07227,-6.14844c0.70555,-0.61338 0.89209,-1.63368 0.44922,-2.45703c-2.37786,-4.42068 -5.53282,-8.3759 -9.3125,-11.67773c-0.7046,-0.61494 -1.74126,-0.65955 -2.49609,-0.10742l-7.56641,5.52539c-2.45364,-1.64032 -5.11019,-2.91872 -7.92187,-3.81445l-0.39844,-9.36328c-0.03978,-0.93385 -0.72101,-1.71563 -1.64062,-1.88281c-2.46917,-0.44846 -4.96914,-0.67383 -7.46875,-0.67383zM51.06055,12.4668c1.73552,0 3.46251,0.22968 5.18555,0.46875l0.38086,8.93945c0.03735,0.87428 0.63868,1.62278 1.48438,1.84766c0.84556,0.22484 1.67841,0.48974 2.49609,0.79297l-1.48633,2.47656c-0.18941,0.30657 -0.19924,0.69133 -0.02574,1.00718c0.1735,0.31584 0.50351,0.51392 0.86384,0.5185c0.36033,0.00458 0.69527,-0.18505 0.87674,-0.49638l1.63672,-2.72656c1.73887,0.79466 3.39713,1.76291 4.93945,2.90625c0.70304,0.52186 1.66378,0.52582 2.37109,0.00977l7.22461,-5.27734c2.52359,2.39717 4.69341,5.1156 6.46875,8.10938l-6.75391,5.87109c-0.6604,0.57419 -0.87087,1.51101 -0.51953,2.3125c0.98414,2.24325 1.6548,4.60602 2.01172,7.02148l-3.85156,1.19141c-0.34848,0.09974 -0.61572,0.38022 -0.69849,0.73312c-0.08277,0.35289 0.03188,0.72295 0.29967,0.96724c0.26779,0.24428 0.64679,0.32455 0.99062,0.2098l3.48438,-1.07812c0.02468,0.33925 0.04847,0.67908 0.06055,1.01953c0.03164,0.87465 0.62826,1.62716 1.47266,1.85742l8.63477,2.36133c-0.30087,3.46715 -1.07527,6.85966 -2.30859,10.11328l-8.80078,-1.61914c-0.86086,-0.15884 -1.72499,0.26057 -2.13281,1.03516c-1.61638,3.07242 -3.7994,5.81076 -6.43555,8.07031c-0.66412,0.56965 -0.8809,1.50484 -0.53516,2.30859l3.53516,8.2207c-2.89798,1.92657 -6.03249,3.43536 -9.3457,4.5l-3.9375,-7.35937l3.14258,-3.60937c0.26223,-0.29383 0.3276,-0.7142 0.16699,-1.07378c-0.16061,-0.35959 -0.51731,-0.59144 -0.91113,-0.59223c-0.29416,-0.00021 -0.57349,0.1291 -0.76367,0.35352l-3.00977,3.45508c-0.33585,-0.1211 -0.69799,-0.15009 -1.04883,-0.08398c-0.49398,0.09453 -0.99095,0.17114 -1.48828,0.23828l0.33398,-3.06641c0.03536,-0.28545 -0.05389,-0.57231 -0.24496,-0.78731c-0.19107,-0.215 -0.46546,-0.33733 -0.75309,-0.33574c-0.51389,0.0028 -0.94202,0.39462 -0.99023,0.90625l-0.37891,3.48047c-1.02646,0.0614 -2.05526,0.06767 -3.08203,0.01367l-0.39062,-3.86133c-0.04611,-0.52297 -0.48875,-0.92126 -1.01367,-0.91211c-0.28234,0.00476 -0.54951,0.12866 -0.73554,0.34111c-0.18603,0.21244 -0.27358,0.49363 -0.24103,0.77413l0.35156,3.47266c-0.56477,-0.072 -1.1289,-0.1564 -1.68945,-0.26367c-0.85959,-0.164 -1.72599,0.24981 -2.13867,1.02148l-4.22266,7.88867c-3.31311,-1.06478 -6.44784,-2.57333 -9.3457,-4.5l1.41992,-3.30078l4.0332,1.05273c0.34737,0.09474 0.71886,-0.00456 0.97263,-0.25998c0.25377,-0.25543 0.35065,-0.62755 0.25365,-0.9743c-0.097,-0.34675 -0.3729,-0.61459 -0.72237,-0.70127l-3.73828,-0.97461l0.91992,-2.13672l4.78125,-0.73047c0.51828,-0.07361 0.89212,-0.53443 0.85726,-1.05675c-0.03486,-0.52232 -0.4666,-0.92939 -0.99007,-0.93348c-0.05693,-0.00029 -0.11377,0.00429 -0.16992,0.01367l-3.95508,0.60352c-0.08694,-0.44035 -0.31946,-0.83865 -0.66016,-1.13086c-2.63614,-2.25955 -4.82028,-4.99822 -6.43555,-8.07031c-0.40782,-0.77459 -1.27195,-1.19399 -2.13281,-1.03516l-2.44336,0.44922l-1.21484,-4.19531c-0.11851,-0.43345 -0.51158,-0.73464 -0.96094,-0.73633c-0.31751,-0.0013 -0.61677,0.14825 -0.80635,0.40295c-0.18958,0.2547 -0.24695,0.58429 -0.15459,0.88807l1.1582,4.00391l-4.37891,0.80664c-1.2336,-3.25491 -2.00784,-6.64802 -2.30859,-10.11523l8.63086,-2.35937c0.84439,-0.23026 1.44101,-0.98277 1.47266,-1.85742c0.0123,-0.34951 0.03494,-0.69867 0.06055,-1.04687l3.42188,0.40625c0.54851,0.06526 1.04607,-0.32649 1.11133,-0.875c0.06526,-0.54851 -0.32649,-1.04607 -0.875,-1.11133l-3.43555,-0.4082c0.0861,-0.58386 0.19098,-1.1655 0.31445,-1.74219l6.07422,0.29492c0.55175,0.02643 1.02045,-0.39943 1.04688,-0.95117c0.02643,-0.55175 -0.39943,-1.02045 -0.95117,-1.04687l-5.66992,-0.27539c0.32973,-1.12402 0.72648,-2.22948 1.19922,-3.30664c0.35231,-0.80202 0.14177,-1.73997 -0.51953,-2.31445l-6.75391,-5.87109c1.77525,-2.99387 3.94489,-5.71235 6.46875,-8.10937l7.22461,5.27734c0.70731,0.51605 1.66805,0.51209 2.37109,-0.00977c2.78908,-2.06757 5.94363,-3.58752 9.29883,-4.47852c0.84646,-0.22415 1.44873,-0.97282 1.48633,-1.84766l0.37891,-8.93945c1.72368,-0.23925 3.45134,-0.46875 5.1875,-0.46875zM49.08594,28.06836c-0.40108,0.01045 -0.75709,0.25958 -0.9043,0.63281l-1.4375,3.48828c-0.73324,0.15838 -1.43512,0.37494 -2.12109,0.61719l-0.74414,-1.86328c-0.1482,-0.38477 -0.51736,-0.63915 -0.92969,-0.64062c-0.33468,-0.00126 -0.64781,0.16498 -0.83427,0.4429c-0.18646,0.27793 -0.22154,0.6307 -0.09347,0.93991l0.75781,1.90039c-1.10053,0.54282 -2.11952,1.19736 -3.05273,1.94922l-1.36328,-0.83984c-0.17023,-0.10769 -0.36901,-0.16147 -0.57031,-0.1543c-0.44282,0.01569 -0.82252,0.32089 -0.93306,0.74997c-0.11054,0.42908 0.07443,0.87976 0.45455,1.10745l0.87891,0.54102c-0.18198,0.18916 -0.37613,0.36691 -0.54883,0.56445c-3.07591,3.51842 -4.69727,8.26843 -4.69727,13.35352c0,5.17236 2.04327,9.65749 5.47656,12.74219c0.03298,0.02963 0.07029,0.05461 0.10352,0.08398l-2.54297,1.36328c-0.48702,0.26104 -0.67022,0.86747 -0.40918,1.35449c0.26104,0.48702 0.86747,0.67022 1.35449,0.40918l3.34375,-1.79102c0.84313,0.57029 1.7357,1.08063 2.68555,1.50977l-1.29492,1.9082c-0.31066,0.45736 -0.19174,1.07996 0.26563,1.39063c0.45736,0.31066 1.07996,0.19174 1.39063,-0.26562l1.55664,-2.29492c1.28191,0.4235 2.6358,0.72165 4.04492,0.90039l0.24023,1.23633c0.06278,0.35613 0.31292,0.65063 0.65419,0.77021c0.34128,0.11958 0.72052,0.04562 0.99186,-0.19344c0.27133,-0.23906 0.39248,-0.60597 0.31684,-0.95959l-0.13281,-0.68359c0.31849,0.01232 0.63217,0.03711 0.95508,0.03711c1.75478,0 3.39894,-0.22788 4.9375,-0.625l1.13086,2.04688c0.16659,0.32416 0.49633,0.53203 0.86064,0.54256c0.36431,0.01052 0.7055,-0.17797 0.89052,-0.49197c0.18502,-0.314 0.18458,-0.7038 -0.00116,-1.01738l-0.93945,-1.70117c2.34168,-0.9101 4.35791,-2.28179 5.94531,-4.05664c0.05285,-0.05909 0.09653,-0.12568 0.14844,-0.18555l1.94531,0.92578c0.3245,0.16939 0.71561,0.14796 1.01967,-0.05587c0.30405,-0.20382 0.47246,-0.55748 0.43905,-0.922c-0.03341,-0.36452 -0.2633,-0.68167 -0.59934,-0.82682l-1.57812,-0.75195c2.05283,-3.099 3.09375,-6.9526 3.09375,-11.14453c0,-2.28019 -0.40119,-4.44105 -1.11133,-6.43945l1.95117,0.31641c0.54527,0.08845 1.05901,-0.28187 1.14746,-0.82715c0.08845,-0.54527 -0.28187,-1.05901 -0.82715,-1.14746l-3.19336,-0.51758c-0.62536,-1.22432 -1.38781,-2.35902 -2.26758,-3.39453l1.90234,-0.42773c0.51263,-0.10854 0.85456,-0.59435 0.78377,-1.11354c-0.0708,-0.51919 -0.53033,-0.8957 -1.0533,-0.86303c-0.05661,0.00368 -0.1128,0.01218 -0.16797,0.02539l-3.10937,0.69922c-0.90271,-0.81068 -1.89154,-1.52973 -2.96094,-2.14648l1.92969,-1.44336c0.34805,-0.25332 0.49494,-0.70094 0.36468,-1.11123c-0.13027,-0.41029 -0.50846,-0.6912 -0.93889,-0.69736c-0.22506,-0.00307 -0.44458,0.06988 -0.62305,0.20703l-2.72852,2.04102c-1.10072,-0.46355 -2.26655,-0.824 -3.48828,-1.07617l0.67578,-0.67969c0.29488,-0.2882 0.38267,-0.72783 0.22108,-1.10717c-0.16159,-0.37934 -0.53942,-0.62064 -0.95155,-0.60767c-0.26008,0.00826 -0.5067,0.11755 -0.6875,0.30469l-1.73437,1.74414c-0.54212,-0.04256 -1.08729,-0.07812 -1.64648,-0.07812c-0.57002,0 -1.12769,0.02864 -1.67773,0.07617l0.98242,-2.38477c0.13462,-0.31333 0.10029,-0.67366 -0.09106,-0.95594c-0.19135,-0.28228 -0.51335,-0.4476 -0.85426,-0.43859zM27.41992,30.36133c-0.15486,0.02705 -0.30702,0.08528 -0.44727,0.17578c-0.561,0.362 -0.72138,1.11283 -0.35937,1.67383c0.362,0.561 1.11088,0.72138 1.67188,0.35937c0.561,-0.362 0.72333,-1.11183 0.36133,-1.67383c-0.2715,-0.42075 -0.76198,-0.6163 -1.22656,-0.53516zM31.52539,35.48828c-0.15486,0.02705 -0.30702,0.08528 -0.44727,0.17578c-0.562,0.362 -0.72137,1.11283 -0.35937,1.67383c0.362,0.561 1.11088,0.72138 1.67188,0.35938c0.561,-0.362 0.72233,-1.11283 0.36133,-1.67383c-0.2715,-0.42075 -0.76198,-0.6163 -1.22656,-0.53516zM50.72656,35.77148c8.87891,0 14.51367,5.97592 14.51367,14.33984c0,4.26923 -1.24311,7.82418 -3.45117,10.29297c-2.20806,2.46879 -5.39719,3.9707 -9.8418,3.9707c-4.4952,0 -8.24065,-1.4079 -10.84961,-3.75195c-2.60896,-2.34405 -4.15039,-5.61898 -4.15039,-9.76562c0,-4.23392 1.35264,-8.02537 3.70898,-10.7207c2.35634,-2.69533 5.68158,-4.36523 10.07031,-4.36523zM73.7832,54.62305c-0.15486,0.02703 -0.30506,0.08528 -0.44531,0.17578c-0.562,0.362 -0.72333,1.11283 -0.36133,1.67383c0.362,0.562 1.11087,0.72138 1.67188,0.35938c0.561,-0.362 0.72333,-1.10988 0.36133,-1.67187c-0.2715,-0.4215 -0.76198,-0.6182 -1.22656,-0.53711z"
              ></path>
            </g>
          </g>
        </svg>