<svg version="1.1" xmlns="http://www.w3.org/2000/svg" xmlns:xlink="http://www.w3.org/1999/xlink" width="50px" height="50px" viewBox="0,0,256,256"><g fill="#cc5de8" fill-rule="nonzero" stroke="none" stroke-width="1" stroke-linecap="butt" stroke-linejoin="miter" stroke-miterlimit="10" stroke-dasharray="" stroke-dashoffset="0" font-family="none" font-weight="none" font-size="none" text-anchor="none" style="mix-blend-mode: normal"><g transform="scale(5.12,5.12)"><path d="M16.78125,0c-0.56641,0 -1.55859,0.41016 -4.4375,1.65625c-3.08594,1.33594 -7.73437,3.34375 -9.46875,3.34375h-1.875c-0.55078,0 -1,0.44922 -1,1v10c0,0.55078 0.44922,1 1,1c0,0 -0.26562,0.03125 0,0.03125c2.26563,0 3.45313,0.85547 4.84375,1.84375c1.39063,0.98828 2.98047,2.125 5.625,2.125c1.72656,0 4.00781,-0.36719 5.84375,-0.65625c1.16016,-0.18359 2.24609,-0.34375 2.71875,-0.34375c0.60547,0 1.78906,0.19922 2.96875,0.40625v2.59375c-0.00391,0.38672 0.21484,0.73828 0.5625,0.90625l2,1c0.13672,0.0625 0.28516,0.09766 0.4375,0.09375v7c-0.00781,0.26563 0.09375,0.52734 0.28125,0.71875l1,1c0.19141,0.1875 0.45313,0.28906 0.71875,0.28125h2c0.26563,0.00781 0.52734,-0.09375 0.71875,-0.28125l1,-1c0.1875,-0.19141 0.28906,-0.45312 0.28125,-0.71875v-7c0.15234,0.00391 0.30078,-0.03125 0.4375,-0.09375l2,-1c0.34766,-0.16797 0.56641,-0.51953 0.5625,-0.90625v-5c0.00781,-0.26562 -0.09375,-0.52734 -0.28125,-0.71875l-0.8125,-0.8125c0.16406,-0.71484 0.08594,-1.46875 -0.25,-2.0625c-1.5,-2.51953 -5.03516,-8.42578 -5.5,-8.9375c-0.55469,-0.60937 -9.87891,-5.46875 -11.375,-5.46875zM18.03125,9h0.15625c0.56641,0.09375 4.28516,1.34375 5.125,1.71875c0.25,0.3125 0.76563,0.95703 1.40625,1.75c-0.09766,-0.03516 -0.21484,-0.05859 -0.3125,-0.09375c1.88281,0.62891 3.75,1.86328 4.34375,2.28125c0.14844,0.10547 0.27734,0.22266 0.40625,0.34375h-1.71875c-1.21484,-0.78125 -2.83984,-1.63672 -4.21875,-1.90625c-1.06641,-0.21094 -2.25391,-0.25 -3.09375,-0.25c-0.47266,0 -0.84375,0 -1,0c-0.39062,0 -2.58203,-0.32422 -3.03125,-1.90625c-0.02344,-0.07812 -0.05078,-0.16406 -0.0625,-0.25c-0.01172,-0.0625 -0.03125,-0.12109 -0.03125,-0.1875c0,-0.44922 -0.01562,-1.5 2.03125,-1.5zM29.3125,17h2.25l1.4375,1.4375v3.9375l-1.25,0.625h-0.75c-0.55078,0 -1,0.44922 -1,1v7.5625l-0.4375,0.4375h-1.125l-0.4375,-0.4375v-7.5625c0,-0.55078 -0.44922,-1 -1,-1h-0.75l-1.25,-0.625v-1.625c0.46875,0.08203 1.17578,0.19922 1.375,0.21875c0.12109,0.01172 0.22656,0.03125 0.34375,0.03125c0.36719,0 0.70313,-0.07812 1,-0.1875c0.26563,0.41797 0.74609,0.6875 1.28125,0.6875c0.82813,0 1.5,-0.67187 1.5,-1.5c0,-0.67969 -0.44141,-1.25391 -1.0625,-1.4375c0.07422,-0.51172 0.04688,-1.05859 -0.125,-1.5625zM39.0625,33c-1.89453,-0.04687 -3.3125,0.53906 -4.875,1.1875c-1.875,0.77734 -4.01562,1.65625 -7.65625,1.8125c-0.37109,0.01953 -0.74609,0.03125 -1.15625,0.03125c-0.75391,0 -1.4375,0.04297 -2.03125,0.15625c-0.01172,-0.00391 -0.01953,0.00391 -0.03125,0c-2.12891,0.34766 -3.18359,1.3125 -3.28125,2.96875c-0.11719,2.02734 1.625,2.9375 5.1875,2.9375h5.59375c2.53125,0 6.03906,-1.05078 6.1875,-1.09375c0.05078,-0.01953 0.13281,-0.03125 0.1875,-0.03125c0.27734,0 0.5,0.22266 0.5,0.5c0,0.23438 -0.19141,0.41406 -0.40625,0.46875c-0.00391,0.00391 0.00391,0.03125 0,0.03125c-0.39062,0.11328 -3.875,1.125 -6.46875,1.125h-5.59375c-2.67969,0 -4.37109,-0.46484 -5.34375,-1.5c-0.61719,-0.65234 -0.90234,-1.50781 -0.84375,-2.5c0.01172,-0.19531 0.0625,-0.34766 0.09375,-0.53125l-6.8125,-2.34375c-0.14062,-0.04687 -0.66406,-0.19922 -1.21875,-0.3125c-0.13672,-0.02734 -0.26953,-0.04297 -0.40625,-0.0625c-0.03125,-0.00391 -0.0625,-0.02734 -0.09375,-0.03125c-0.14062,-0.01562 -0.28125,-0.03125 -0.40625,-0.03125c-0.14453,0 -0.3125,0.03516 -0.46875,0.0625c-0.11719,0.01953 -0.22656,0.05859 -0.34375,0.09375c-0.03516,0.00781 -0.05859,-0.01172 -0.09375,0c-0.14844,0.05078 -0.32031,0.11719 -0.46875,0.1875c-0.15234,0.07422 -0.29297,0.15234 -0.4375,0.25c-0.76172,0.50391 -1.375,1.34766 -1.375,2.5625c0,2.125 1.24219,2.83984 2.625,3.4375c0.17578,0.07422 17.75,7.625 19.9375,7.625c0.89453,0 3.125,-0.78516 7.53125,-2.40625c1.20703,-0.44531 2.27734,-0.80078 2.8125,-0.96875c2.95313,-0.92969 5.22266,0.71484 5.3125,0.78125c0.25781,0.19531 0.60156,0.25 0.90625,0.15625c0.30859,-0.09375 0.55078,-0.32031 0.65625,-0.625l3.15625,-9.21875c0.17188,-0.49609 -0.07812,-1.04687 -0.5625,-1.25c-0.03906,-0.01562 -3.92969,-1.65625 -6.28125,-2.5625c-1.59766,-0.61328 -2.89453,-0.87891 -4.03125,-0.90625zM14.71875,33.34375c-1.25781,0 -2.54297,0.58984 -3.21875,1.625c0.46875,0.10547 0.88672,0.23438 1.125,0.3125l6.78125,2.3125c0.42578,-0.92187 1.19531,-1.60937 2.34375,-2.03125c-2.26953,-0.89062 -5.84375,-2.21875 -7.03125,-2.21875z"></path></g></g></svg>