<svg version="1.1" xmlns="http://www.w3.org/2000/svg" xmlns:xlink="http://www.w3.org/1999/xlink" width="96px" height="96px" viewBox="0,0,256,256">
          <g
            fill="#cc5de8"
            fill-rule="nonzero"
            stroke="none"
            stroke-width="1"
            stroke-linecap="butt"
            stroke-linejoin="miter"
            stroke-miterlimit="10"
            stroke-dasharray=""
            stroke-dashoffset="0"
            font-family="none"
            font-weight="none"
            font-size="none"
            text-anchor="none"
            style="mix-blend-mode: normal"
          >
            <g transform="scale(2.66667,2.66667)">
              <path
                d="M43.7832,3.53906c-0.99937,0.03823 -1.95031,0.44041 -2.67383,1.13086l-16.79883,16.80078v-4.87109c1.50408,-0.07479 2.68616,-1.31437 2.68945,-2.82031v-2.7793c-0.00532,-1.55541 -1.2649,-2.815 -2.82031,-2.82031h-15.17969c-1.55541,0.00532 -2.815,1.2649 -2.82031,2.82031v2.80078c0.01041,1.51126 1.21034,2.74565 2.7207,2.79883v20.29102l-7.78125,7.7793c-1.48304,1.48706 -1.48304,3.8938 0,5.38086l1.73047,1.72852c1.48366,1.48205 3.88744,1.48205 5.37109,0l0.67969,-0.67969v28.2207c-1.51669,0.80522 -2.68448,2.13985 -3.28125,3.75c-1.77923,-0.35054 -3.60281,0.34255 -4.70004,1.78637c-1.09724,1.44382 -1.27666,3.3864 -0.46243,5.00677c0.81422,1.62037 2.48,2.63575 4.29334,2.61702h76c0.55228,0 1,-0.44772 1,-1v-11.31055h11.59961c0.76926,0.0001 1.50705,-0.30544 2.051,-0.84939c0.54395,-0.54395 0.84949,-1.28174 0.84939,-2.051v-16.66016c-0.00035,-0.77574 -0.31148,-1.51901 -0.86385,-2.06367c-0.55237,-0.54466 -1.29994,-0.84532 -2.07561,-0.83477h-15.11133v-7.39063l1.46094,1.45898c0.71114,0.7136 1.67713,1.11471 2.68457,1.11471c1.00744,0 1.97343,-0.40111 2.68457,-1.11471l1.74023,-1.72852c1.48304,-1.48706 1.48304,-3.8938 0,-5.38086l-40,-40c-0.80171,-0.76504 -1.87896,-1.17297 -2.98633,-1.13086zM43.9707,5.49805c0.52582,0.00575 1.02822,0.21836 1.39844,0.5918l40,40c0.6999,0.70242 0.6999,1.8386 0,2.54102l-1.72852,1.72852c-0.70242,0.6999 -1.8386,0.6999 -2.54102,0l-36.44922,-36.42969c-0.18776,-0.18929 -0.44334,-0.29576 -0.70996,-0.29576c-0.26662,0 -0.5222,0.10647 -0.70996,0.29576l-36.42969,36.42969c-0.70242,0.6999 -1.8386,0.6999 -2.54102,0l-1.73047,-1.72852c-0.6999,-0.70242 -0.6999,-1.8386 0,-2.54102l40,-40c0.38071,-0.38401 0.90069,-0.5975 1.44141,-0.5918zM9,10.16016h15.2207c0.44469,0.02196 0.79061,0.39475 0.7793,0.83984v2.80078c-0.0009,0.45235 -0.36796,0.81853 -0.82031,0.81836h-15.17969c-0.22101,0.00015 -0.43273,-0.08893 -0.58716,-0.24703c-0.15443,-0.15811 -0.2385,-0.37186 -0.23315,-0.59281v-2.7793c-0.00535,-0.22095 0.07872,-0.4347 0.23315,-0.59281c0.15443,-0.15811 0.36615,-0.24718 0.58716,-0.24703zM43.90039,16.09961l32.29883,32.2207v9.39063h-5.10937v-1.85156c-0.00054,-1.71586 -1.37429,-3.11567 -3.08984,-3.14844h-19.11914c-1.73924,-0.00022 -3.14953,1.4092 -3.15039,3.14844v34.62109h-34.83008v-41.38086zM10.90039,16.59961h11.41016v6.88086l-11.41016,11.41016zM19.16016,52.71094c-0.83692,-0.0027 -1.64051,0.32777 -2.2334,0.91846c-0.59289,0.59069 -0.92634,1.39305 -0.92675,2.22997v20c0,0.55228 0.44772,1 1,1h23.38086c0.55228,0 1,-0.44772 1,-1v-20c-0.00085,-1.73543 -1.4052,-3.14327 -3.14062,-3.14844zM19.14063,54.71094h19.09961c0.63085,0.00514 1.13979,0.51756 1.14063,1.14844v1.85156h-21.38086v-1.85156c0.00084,-0.63087 0.50977,-1.14329 1.14063,-1.14844zM48.88086,54.71094h19.11914c0.63085,0.00514 1.13979,0.51756 1.14063,1.14844v1.85156h-21.41016v-1.85156c0.00086,-0.63467 0.51572,-1.14865 1.15039,-1.14844zM18,59.71094h9.69922v6.57812h-9.69922zM29.67969,59.71094h9.67969v6.57812h-9.66016zM47.73047,59.71094h11.74023c-0.2,0.62 -0.14062,-0.74141 -0.14062,17.55859c-0.0001,0.76926 0.30544,1.50705 0.84939,2.051c0.54395,0.54395 1.28174,0.84949 2.051,0.84939h6.85938v10.31055h-21.35937zM62.23047,59.71094h31.08008c0.4966,-0.00022 0.89953,0.40184 0.90039,0.89844v16.66016c-0.0052,0.4951 -0.40529,0.89519 -0.90039,0.90039h-31.08008c-0.4951,-0.0052 -0.89519,-0.40529 -0.90039,-0.90039v-16.66016c0.00086,-0.4966 0.40379,-0.89865 0.90039,-0.89844zM65.42969,63.7793c-0.55228,0 -1,0.44772 -1,1v8.25977c0,0.55228 0.44772,1 1,1c0.55228,0 1,-0.44772 1,-1v-3.81836h0.66016l2,3.63867c0.37,0.68 0.54976,1.21094 1.25977,1.21094c0.35221,-0.00208 0.67735,-0.1893 0.85597,-0.49286c0.17862,-0.30357 0.18436,-0.67871 0.01513,-0.98761l-2.08008,-3.81055c1.03698,-0.63719 1.51945,-1.88941 1.1781,-3.05766c-0.34135,-1.16825 -1.42212,-1.96371 -2.63904,-1.94234zM79.32031,63.80664c-0.26926,-0.00526 -0.52927,0.09831 -0.72116,0.28726c-0.1919,0.18896 -0.29947,0.44733 -0.29837,0.71664v8.25977c0,0.55228 0.44772,1 1,1c0.55228,0 1,-0.44772 1,-1v-4l2.17969,4.41992c0.20323,0.4206 0.67058,0.64447 1.1257,0.53923c0.45512,-0.10524 0.77674,-0.51155 0.77469,-0.97868v-8.24023c0,-0.55228 -0.44772,-1 -1,-1c-0.55228,0 -1,0.44772 -1,1v4l-2.18164,-4.44141c-0.16416,-0.33761 -0.50358,-0.55484 -0.87891,-0.5625zM73.13086,63.81055c-0.55228,0 -1,0.44772 -1,1v8.25977c0,0.55228 0.44772,1 1,1h3c0.55228,0 1,-0.44772 1,-1c0,-0.55228 -0.44772,-1 -1,-1h-2v-2.13086h0.76953c0.55228,0 1,-0.44772 1,-1c0,-0.55228 -0.44772,-1 -1,-1h-0.80078v-2.12891h2.03125c0.55228,0 1,-0.44772 1,-1c0,-0.55228 -0.44772,-1 -1,-1zM85.81055,63.81055c-0.55228,0 -1,0.44772 -1,1c0,0.55228 0.44772,1 1,1h1.18945v7.25977c0,0.55228 0.44772,1 1,1c0.55228,0 1,-0.44772 1,-1v-7.25977h1.16016c0.55228,0 1,-0.44772 1,-1c0,-0.55228 -0.44772,-1 -1,-1h-0.04102zM66.42969,65.7793h1.25c0.36223,0.02067 0.65061,0.31112 0.66868,0.67349c0.01807,0.36237 -0.23998,0.68007 -0.59837,0.73667h-1.30078zM18,68.28906h9.69922v6.57031h-9.69922zM29.69922,68.28906h9.68164v6.57031h-9.68164zM24.85938,79.64063c-0.55228,0 -1,0.44772 -1,1c0,0.55228 0.44772,1 1,1h7.67969c0.55228,0 1,-0.44772 1,-1c0,-0.55228 -0.44772,-1 -1,-1zM71.08984,80.16992h2.74023v10.31055h-2.74023zM75.83008,80.16992h3.88086v10.31055h-3.88086zM8.90039,81.73047v8.75h-4.15039c-1.51498,0.00001 -2.74462,-1.22527 -2.75,-2.74023c-0.00121,-0.93551 0.47496,-1.80698 1.26289,-2.3113c0.78793,-0.50432 1.77871,-0.57179 2.62773,-0.17894c0.27915,0.12784 0.60155,0.12035 0.87447,-0.0203c0.27292,-0.14065 0.4661,-0.39888 0.52397,-0.7004c0.20763,-1.08739 0.77521,-2.07326 1.61133,-2.79883z"
              ></path>
            </g>
          </g>
        </svg>